<?xml version="1.0" encoding="UTF-8" standalone="no"?>
<svg
   viewBox="0 0 64 64"
   version="1.1"
   id="svg8"
   sodipodi:docname="shoutyd-osuse.svg"
   inkscape:version="1.4 (unknown)"
   inkscape:export-filename="shoutyd-osuse.png"
   inkscape:export-xdpi="144"
   inkscape:export-ydpi="144"
   xmlns:inkscape="http://www.inkscape.org/namespaces/inkscape"
   xmlns:sodipodi="http://sodipodi.sourceforge.net/DTD/sodipodi-0.dtd"
   xmlns="http://www.w3.org/2000/svg"
   xmlns:svg="http://www.w3.org/2000/svg">
  <defs
     id="defs8" />
  <sodipodi:namedview
     id="namedview8"
     pagecolor="#ffffff"
     bordercolor="#666666"
     borderopacity="1.0"
     inkscape:showpageshadow="2"
     inkscape:pageopacity="0.0"
     inkscape:pagecheckerboard="0"
     inkscape:deskcolor="#d1d1d1"
     inkscape:zoom="12.5"
     inkscape:cx="32.12"
     inkscape:cy="32"
     inkscape:window-width="1920"
     inkscape:window-height="1043"
     inkscape:window-x="0"
     inkscape:window-y="0"
     inkscape:window-maximized="1"
     inkscape:current-layer="svg8" />
  <path
     d="m38.1 57.6c-.5.5-1.1 1-1.8 1.3l-7.9 3.7c-1.6.7-3.3.8-4.9.2s-2.9-1.8-3.6-3.3l-3.7-7.9c-1.1-2.4-.6-5.3 1.3-7.2.5-.5 1.1-1 1.8-1.3l7.9-3.7c3.2-1.5 7-.1 8.5 3.1l3.7 7.9c1.1 2.3.6 5.3-1.3 7.2m-17.7-10.4c-.7.7-.9 1.7-.5 2.6l3.7 7.9c.3.6.7 1 1.3 1.2s1.2.2 1.8-.1l7.9-3.7c1.1-.5 1.6-1.9 1.1-3l-3.7-7.9c-.5-1.1-1.9-1.6-3-1.1l-8 3.6c-.2.1-.5.3-.6.5"
     fill="#b0bdc6"
     id="path1" />
  <path
     d="m36.2 56.3c-.4.4-.9.8-1.5 1l-6.4 3c-1.3.6-2.7.7-4 .2s-2.4-1.4-2.9-2.7l-3-6.4c-.9-2-.5-4.4 1-5.9.4-.4.9-.8 1.5-1l6.4-3c2.6-1.2 5.7-.1 6.9 2.5l3 6.4c.9 2 .5 4.4-1 5.9m-14.5-8.4c-.6.6-.7 1.4-.4 2.1l3 6.4c.2.5.6.8 1.1 1s1 .1 1.4-.1l6.4-3c.9-.4 1.3-1.6.9-2.5l-3-6.4c-.4-.9-1.5-1.3-2.5-.9l-6.4 3c-.1.1-.3.2-.5.4m-20.2 5.9s-4 2.5 1.1 7.6 7.6 1.1 7.6 1.1z"
     fill="#898a90"
     id="path2" />
  <path
     d="m2.9 55.2s-4.2 2.3-.3 6.2 6.2-.3 6.2-.3z"
     fill="#b0bdc6"
     id="path3" />
  <path
     d="m26.8 3.3-25.3 50.3c-1.8 2.8 6.1 10.7 8.9 8.9l50.2-25.3z"
     fill="#ed4c5c"
     id="path4"
     style="fill:#2ec854;fill-opacity:1" />
  <path
     d="m62.9 35.2-1.4 1.4c-3.5 3.5-13.9-1.3-23.3-10.7-9.4-9.5-14.3-19.9-10.8-23.4l1.4-1.4z"
     fill="#898a90"
     id="path5" />
  <path
     d="m61.6 34-3.7 3.7s-7.8.1-19.7-11.9c-12-11.9-11.9-19.7-11.9-19.7l3.7-3.7z"
     fill="#dfe9ef"
     id="path6" />
  <path
     d="m52.1 11.9c9.4 9.4 14.2 19.9 10.7 23.3-3.5 3.5-13.9-1.3-23.3-10.7s-14.2-19.9-10.7-23.4c3.5-3.4 13.9 1.4 23.3 10.8"
     fill="#b0bdc6"
     id="path7" />
  <path
     d="m39.5 24.5c6.7 6.7 13.9 11 18.7 11.8-.8-4.9-5.1-12-11.8-18.7s-13.9-11-18.7-11.8c.8 4.8 5.2 12 11.8 18.7"
     fill="#898a90"
     id="path8" />
</svg>
